<svg enable-background="new 0 0 1858 2499.6" viewBox="0 0 1858 2499.6" xmlns="http://www.w3.org/2000/svg"><path d="m1858 1778.7c0 44.8-36.8 79.3-79.3 79.3h-1699.4c-44.8 0-79.3-36.8-79.3-79.3v-1699.4c0-44.8 36.8-79.3 79.3-79.3h1699.3c44.8 0 79.3 36.8 79.3 79.3v1699.4z" fill="#f08705"/><path d="m1858 1778.7c0 44.8-36.8 79.3-79.3 79.3h-1142.9l-370.2-376 230-376 683-848.5 677.2 697.9z" fill="#df6c0c"/><path d="m1525.7 1038.2h-195.5l-207-351.8c46-9.2 80.5-50.6 80.5-98.9v-265.6c0-56.3-44.8-101.2-101.2-101.2h-344.8c-56.3 0-101.2 44.8-101.2 101.2v265.6c0 49.4 34.5 89.7 79.3 98.9l-207 353h-195.4c-56.3 0-101.2 44.8-101.2 101.2v265.6c0 56.3 44.8 101.2 101.2 101.2h344.9c56.3 0 101.2-44.8 101.2-101.2v-265.6c0-56.3-44.8-101.2-101.2-101.2h-33.3l204.7-349.5h159.8l205.8 349.5h-34.5c-56.3 0-101.2 44.8-101.2 101.2v265.6c0 56.3 44.8 101.2 101.2 101.2h344.9c56.3 0 101.2-44.8 101.2-101.2v-265.6c0-56.4-44.8-102.4-101.2-102.4z" fill="#fff"/><path d="m263.3 2483.5c0 2.3 0 3.4-1.1 5.7-1.1 1.1-2.3 2.3-4.6 3.4s-5.7 1.1-9.2 2.3c-3.4 0-9.2 1.1-14.9 1.1s-11.5 0-14.9-1.1c-3.4 0-6.9-1.1-9.2-2.3-2.3-1.1-4.6-2.3-5.7-3.4s-1.1-3.4-1.1-5.7v-28.7c-13.8 14.9-27.6 25.3-42.5 33.3s-31 11.5-49.4 11.5c-19.5 0-36.8-3.4-50.6-11.5-13.8-8-25.3-18.4-33.3-31-9.2-12.6-14.9-28.7-18.4-46-3.4-17.2-5.7-35.6-5.7-55.2 0-23 2.3-43.7 6.9-63.2 4.6-18.4 12.6-34.5 21.8-47.1s21.8-23 35.6-29.9 31-10.3 49.4-10.3c14.9 0 27.6 3.4 40.2 9.2 11.5 5.7 24.1 14.9 35.6 26.4v-141.4c0-2.3 0-3.4 1.1-5.7 1.1-1.1 3.4-3.4 5.7-3.4 2.3-1.1 6.9-2.3 11.5-2.3 4.6-1.1 10.3-1.1 18.4-1.1 6.9 0 12.6 0 18.4 1.1 4.6 1.1 8 1.1 11.5 2.3 2.3 1.1 4.6 2.3 5.7 3.4s2.3 3.4 2.3 5.7zm-73.6-174.8c-10.3-13.8-20.7-23-29.9-31-9.2-6.9-19.5-10.3-29.9-10.3-9.2 0-18.4 2.3-25.3 6.9s-12.6 11.5-17.2 19.5-6.9 17.2-9.2 26.4c-2.3 10.3-3.4 19.5-3.4 29.9 0 11.5 1.1 21.8 2.3 32.2 2.3 10.3 4.6 19.5 9.2 27.6 3.4 8 9.2 14.9 16.1 19.5s14.9 6.9 25.3 6.9c4.6 0 10.3-1.1 14.9-2.3s9.2-3.4 14.9-6.9c4.6-3.4 10.3-8 14.9-12.6 5.7-5.7 11.5-11.5 17.2-19.5v-86.3zm312.7-62.1c0 6.9 0 12.6-1.1 17.2 0 4.6-1.1 8-2.3 10.3-1.1 2.3-2.3 4.6-3.4 5.7s-3.4 1.1-4.6 1.1-3.4 0-5.7-1.1-4.6-1.1-6.9-2.3-4.6-1.1-8-2.3c-3.4-1.1-5.7-1.1-9.2-1.1-4.6 0-8 1.1-12.6 2.3-4.6 1.1-8 4.6-12.6 8s-9.2 8-13.8 13.8c-4.6 5.7-10.3 12.6-14.9 21.8v163.3c0 2.3-1.1 3.4-2.3 4.6s-3.4 2.3-5.7 3.4-6.9 1.1-11.5 2.3c-4.6 0-10.3 1.1-18.4 1.1-6.9 0-12.6 0-18.4-1.1-4.6 0-8-1.1-11.5-2.3-2.3-1.1-4.6-2.3-5.7-3.4s-2.3-3.4-2.3-4.6v-261c0-2.3 0-3.4 1.1-4.6 1.1-1.1 2.3-2.3 5.7-3.4 2.3-1.1 5.7-1.1 10.3-2.3 3.4 0 9.2-1.1 14.9-1.1s11.5 0 16.1 1.1c4.6 0 6.9 1.1 9.2 2.3 2.3 1.1 3.4 2.3 4.6 3.4 1.1 1.1 1.1 3.4 1.1 4.6v32.2c6.9-9.2 13.8-17.2 19.5-24.1s11.5-11.5 17.2-14.9 11.5-5.7 16.1-8c5.7-1.1 11.5-2.3 16.1-2.3h8c3.4 0 5.7 1.1 9.2 1.1 3.4 1.1 5.7 1.1 8 2.3l4.6 2.3c1.1 1.1 2.3 2.3 2.3 3.4s1.1 2.3 1.1 4.6 1.1 4.6 1.1 9.2c4.7 5.9 4.7 10.5 4.7 18.5zm266.8 238c0 2.3-1.1 4.6-3.4 6.9-2.3 1.1-4.6 2.3-9.2 3.4s-10.3 1.1-18.4 1.1c-9.2 0-14.9 0-19.5-1.1-3.4-1.1-6.9-2.3-8-3.4s-2.3-3.4-2.3-6.9v-20.7c-10.3 11.5-23 20.7-36.8 26.4-13.8 6.9-28.7 9.2-46 9.2-13.8 0-26.4-2.3-37.9-5.7s-21.8-9.2-29.9-16.1c-8-6.9-14.9-16.1-19.5-26.4s-6.9-23-6.9-36.8c0-14.9 3.4-28.7 9.2-40.2s14.9-20.7 26.4-27.6 26.4-12.6 43.7-16.1c17.2-3.4 37.9-5.7 60.9-5.7h25.3v-16.1c0-8-1.1-14.9-2.3-21.8-1.1-5.7-4.6-11.5-8-14.9-3.4-4.6-9.2-6.9-14.9-9.2-6.9-2.3-13.8-3.4-24.1-3.4-12.6 0-23 1.1-33.3 4.6-9.2 2.3-18.4 5.7-25.3 9.2l-18.4 9.2c-4.6 2.3-9.2 4.6-12.6 4.6-2.3 0-4.6-1.1-5.7-2.3-1.1-1.1-3.4-3.4-4.6-5.7-1.1-2.3-2.3-5.7-2.3-9.2-1.1-3.4-1.1-8-1.1-12.6 0-5.7 0-10.3 1.1-13.8 1.1-3.4 2.3-6.9 5.7-9.2 2.3-2.3 8-5.7 13.8-9.2 6.9-3.4 14.9-6.9 24.1-9.2 9.2-3.4 19.5-5.7 29.9-6.9 10.3-2.3 21.8-2.3 33.3-2.3 20.7 0 37.9 2.3 52.9 5.7 14.9 3.4 26.4 10.3 35.6 18.4 9.2 8 16.1 19.5 20.7 32.2 4.6 12.6 6.9 28.7 6.9 47.1zm-72.5-112.7h-27.6c-11.5 0-21.8 1.1-31 2.3-8 2.3-14.9 4.6-20.7 8-5.7 3.4-9.2 8-11.5 12.6s-3.4 10.3-3.4 17.2c0 11.5 3.4 19.5 10.3 25.3 6.9 5.7 16.1 9.2 28.7 9.2 10.3 0 19.5-2.3 28.7-8s17.2-12.6 26.4-23v-43.6zm537-150.6c0 2.3 0 4.6-1.1 8s-1.1 8-3.4 13.8l-70.2 236.9c-1.1 3.4-2.3 5.7-3.4 8s-3.4 3.4-6.9 4.6c-3.4 1.1-8 2.3-13.8 2.3-5.7 0-13.8 1.1-23 1.1s-17.2 0-23-1.1c-5.7 0-10.3-1.1-13.8-2.3-3.4-1.1-5.7-2.3-8-4.6-1.1-2.3-2.3-4.6-3.4-8l-43.7-158.7-1.1-2.3-1.1 2.3-40.5 158.7c-1.1 3.4-2.3 5.7-3.4 8s-3.4 3.4-8 4.6c-3.4 1.1-8 2.3-13.8 2.3-5.7 0-13.8 1.1-23 1.1-10.3 0-17.2 0-24.1-1.1-5.7 0-10.3-1.1-13.8-2.3-3.4-1.1-5.7-2.3-8-4.6-1.1-2.3-2.3-4.6-3.4-8l-69-236.8c-2.3-5.7-3.4-10.3-3.4-13.8 0-3.4-1.1-5.7-1.1-8s0-3.4 1.1-4.6c1.1-1.1 3.4-2.3 5.7-3.4s6.9-1.1 11.5-2.3c4.6 0 10.3-1.1 18.4-1.1s13.8 0 19.5 1.1c4.6 0 9.2 1.1 11.5 2.3 2.3 1.1 4.6 2.3 5.7 3.4s2.3 3.4 2.3 5.7l51.7 192 1.1 3.4 1.1-3.4 48.3-192c1.1-2.3 1.1-4.6 2.3-5.7 1.1-1.1 3.4-3.4 5.7-3.4 2.3-1.1 5.7-1.1 10.3-2.3 4.6 0 10.3-1.1 17.2-1.1s12.6 0 17.2 1.1c4.6 0 8 1.1 10.3 2.3s4.6 2.3 5.7 3.4 2.3 3.4 2.3 4.6l51.7 193.2 1.1 3.4 1.1-3.4 49.4-192c0-2.3 1.1-4.6 2.3-5.7 1.1-1.1 3.4-3.4 5.7-3.4 2.3-1.1 6.9-1.1 11.5-2.3 4.6 0 10.3-1.1 18.4-1.1 6.9 0 12.6 0 17.2 1.1 4.6 0 8 1.1 10.3 2.3 2.3 1.1 4.6 2.3 5.7 3.4 4.1 1 4.1 2.1 4.1 4.4zm109.2 230c0 18.4-3.4 29.9-9.2 36.8-6.9 5.7-17.2 9.2-34.5 9.2-16.1 0-27.6-3.4-34.5-9.2-5.7-5.7-9.2-18.4-9.2-34.5 0-18.4 3.4-31 9.2-36.8 6.9-5.7 18.4-9.2 34.5-9.2s27.6 3.4 33.3 9.2c8.1 4.6 10.4 17.2 10.4 34.5z" fill="#333"/><path d="m1498.1 2132.8c0 14.9-3.4 25.3-9.2 31-5.7 5.7-17.2 8-33.3 8s-27.6-2.3-33.3-8-9.2-14.9-9.2-29.9 3.4-25.3 9.2-31 17.2-9.2 33.3-9.2 27.6 2.3 33.3 8c6.9 6.9 9.2 17.3 9.2 31.1zm-4.6 350.7c0 2.3-1.1 3.4-2.3 4.6-1.1 1.1-3.4 2.3-5.7 3.4s-6.9 1.1-11.5 2.3c-4.6 0-10.3 1.1-18.4 1.1-6.9 0-12.6 0-18.4-1.1-4.6 0-8-1.1-11.5-2.3-2.3-1.1-4.6-2.3-5.7-3.4s-2.3-3.4-2.3-4.6v-261c0-2.3 1.1-3.4 2.3-4.6 1.1-1.1 3.4-2.3 5.7-3.4s6.9-2.3 11.5-2.3c4.6-1.1 10.3-1.1 18.4-1.1s12.6 0 18.4 1.1c4.6 1.1 8 1.1 11.5 2.3 2.3 1.1 4.6 2.3 5.7 3.4s2.3 3.4 2.3 4.6zm341.5-133.4c0 21.8-3.4 42.5-9.2 60.9-5.7 18.4-14.9 34.5-26.4 47.1-11.5 13.8-26.4 23-44.8 31-18.4 6.9-39.1 10.3-63.2 10.3-23 0-43.7-3.4-60.9-9.2-17.2-6.9-31-16.1-42.5-27.6-11.5-12.6-19.5-27.6-25.3-46-5.7-18.4-8-37.9-8-62.1 0-21.8 3.4-42.5 9.2-60.9 5.7-18.4 14.9-34.5 26.4-47.1s26.4-23 44.8-31c18.4-6.9 39.1-10.3 63.2-10.3 23 0 43.7 3.4 60.9 9.2 17.2 6.9 31 16.1 42.5 27.6 11.5 12.6 19.5 27.6 25.3 46 4.6 18.4 8 39.1 8 62.1zm-75.9 2.3c0-12.6-1.1-25.3-3.4-35.6s-5.7-20.7-10.3-28.7-11.5-13.8-19.5-18.4-18.4-6.9-31-6.9c-11.5 0-20.7 2.3-28.7 5.7s-14.9 10.3-20.7 17.2c-5.7 8-9.2 17.2-11.5 27.6-2.3 10.3-3.4 23-3.4 36.8 0 12.6 1.1 25.3 3.4 35.6s5.7 20.7 10.3 28.7 11.5 13.8 19.5 18.4 18.4 6.9 31 6.9c11.5 0 20.7-2.3 28.7-5.7s14.9-10.3 20.7-17.2c5.7-8 9.2-17.2 11.5-27.6s3.4-23 3.4-36.8z" fill="#f08705"/></svg>